<?xml version="1.0" standalone="no"?>
<!DOCTYPE svg PUBLIC "-//W3C//DTD SVG 1.1//EN" "http://www.w3.org/Graphics/SVG/1.1/DTD/svg11.dtd" >
<svg xmlns="http://www.w3.org/2000/svg">
<metadata>Generated by IcoMoon</metadata>
<defs>
<font id="icomoon" horiz-adv-x="1024">
<font-face units-per-em="1024" ascent="960" descent="-64" />
<missing-glyph horiz-adv-x="1024" />
<glyph unicode="&#x20;" horiz-adv-x="512" d="" />
<glyph unicode="&#xe92b;" d="M1008.716 448c0-274.329-222.388-496.716-496.716-496.716s-496.716 222.388-496.716 496.716c0 274.329 222.388 496.716 496.716 496.716s496.716-222.388 496.716-496.716z" />
<glyph unicode="&#xe92c;" d="M871.164 448c0-198.361-160.803-359.164-359.164-359.164s-359.164 160.803-359.164 359.164c0 198.361 160.803 359.164 359.164 359.164s359.164-160.803 359.164-359.164z" />
<glyph unicode="&#xe92d;" d="M764.179 533.588c-4.585 4.585-10.699 7.642-16.812 7.642-3.057 15.284-16.812 27.51-32.096 29.039l-53.493 7.642c-4.585 0-9.17-3.057-9.17-7.642v-85.588c0-4.585 4.585-9.17 9.17-7.642 4.585 0 7.642 3.057 7.642 7.642v38.209h51.964v-64.191c0-9.17 7.642-15.284 15.284-15.284h53.493v-13.755h-4.585c-4.585 0-9.17-4.585-7.642-9.17 0-4.585 3.057-7.642 7.642-7.642h4.585v-30.567h-19.869c-6.113 22.925-29.039 35.152-51.964 29.039-13.755-4.585-25.982-15.284-29.039-29.039h-19.869v67.248c0 4.585-3.057 9.17-7.642 9.17s-9.17-3.057-9.17-7.642v0-38.209h-15.284v148.251c0 9.17-7.642 16.812-16.812 16.812h-311.785c-4.585 0-7.642-4.585-7.642-9.17s3.057-7.642 7.642-7.642h311.785v-148.251h-369.863v148.251h24.454c4.585 0 9.17 4.585 7.642 9.17 0 4.585-3.057 7.642-7.642 7.642h-25.982c-9.17 0-16.812-7.642-16.812-16.812v-149.779h-9.17c-4.585 0-9.17-4.585-9.17-9.17v0-22.925c0-10.699 7.642-18.34 18.34-18.34h7.642v-6.113h-16.812c-4.585 0-9.17-4.585-7.642-9.17 0-4.585 3.057-7.642 7.642-7.642h25.982c4.585 0 9.17 4.585 9.17 9.17v0 13.755h9.17c3.057-22.925 24.454-38.209 47.379-35.152 18.34 3.057 32.096 16.812 35.152 35.152h33.624c4.585 0 9.17 4.585 7.642 9.17 0 4.585-3.057 7.642-7.642 7.642h-33.624c-1.528 4.585-4.585 10.699-7.642 15.284h158.949c-3.057-4.585-6.113-9.17-7.642-15.284h-74.89c-4.585 0-9.17-4.585-7.642-9.17 0-4.585 3.057-7.642 7.642-7.642h74.89c3.057-22.925 24.454-38.209 47.379-35.152 18.34 3.057 32.096 16.812 35.152 35.152h111.57c3.057-22.925 24.454-38.209 47.379-35.152 18.34 3.057 32.096 16.812 35.152 35.152h19.869c9.17 0 16.812 7.642 16.812 16.812v90.173c1.528 10.699-3.057 10.699-42.794 65.719v0zM308.728 344.072c-13.755 0-24.454 10.699-24.454 24.454v1.528c1.528 13.755 12.227 24.454 25.982 22.925 12.227 0 22.925-10.699 22.925-22.925v0-1.528c0-13.755-10.699-24.454-24.454-24.454zM268.991 379.224h-36.681c0 0-1.528 0-1.528 1.528v0 13.755h44.322c-3.057-4.585-4.585-9.17-6.113-15.284v0zM652.609 394.507v-15.284h-76.418c-1.528 4.585-4.585 10.699-7.642 15.284h84.060zM534.925 344.072c-13.755 0-24.454 10.699-24.454 24.454v1.528c1.528 13.755 12.227 24.454 25.982 22.925 12.227 0 22.925-10.699 22.925-22.925v0-1.528c0-13.755-10.699-24.454-24.454-24.454v0zM730.555 344.072c-13.755 0-24.454 10.699-24.454 24.454s10.699 24.454 24.454 24.454c13.755 0 24.454-10.699 24.454-24.454v0c0-13.755-10.699-24.454-24.454-24.454zM712.215 553.457c7.642-1.528 13.755-6.113 16.812-12.227h-58.078v18.34l41.266-6.113zM739.725 460.227v62.663h9.17l41.266-55.021v-7.642h-50.436z" />
<glyph unicode="&#xe92e;" d="M298.030 429.66c4.585 0 7.642 4.585 7.642 9.17v0 94.758c0 4.585-3.057 9.17-7.642 9.17s-9.17-3.057-9.17-7.642v0-94.758c0-6.113 4.585-10.699 9.17-10.699v0z" />
<glyph unicode="&#xe92f;" d="M374.448 438.83v94.758c0 4.585-3.057 9.17-7.642 9.17s-9.17-3.057-9.17-7.642v0-94.758c0-4.585 3.057-9.17 7.642-9.17 6.113-1.528 9.17 1.528 9.17 7.642v0z" />
<glyph unicode="&#xe930;" d="M512 438.83v94.758c0 4.585-4.585 9.17-9.17 7.642-4.585 0-7.642-3.057-7.642-7.642v-94.758c0-4.585 3.057-9.17 7.642-9.17 6.113 0 9.17 3.057 9.17 9.17v0z" />
<glyph unicode="&#xe931;" d="M444.752 438.83v94.758c0 4.585-4.585 9.17-9.17 7.642-4.585 0-7.642-3.057-7.642-7.642v-94.758c0-4.585 3.057-9.17 7.642-9.17s7.642 3.057 9.17 9.17v0z" />
<glyph unicode="&#xe932;" d="M582.304 438.83v94.758c0 4.585-3.057 9.17-7.642 9.17s-9.17-3.057-9.17-7.642v0-94.758c0-4.585 3.057-9.17 7.642-9.17 4.585-1.528 7.642 1.528 9.17 7.642v0z" />
<glyph unicode="&#xe933;" d="M1008.059 448c0-274.329-222.388-496.716-496.716-496.716s-496.716 222.388-496.716 496.716c0 274.329 222.388 496.716 496.716 496.716s496.716-222.388 496.716-496.716z" />
<glyph unicode="&#xe934;" d="M870.507 448c0-198.361-160.803-359.164-359.164-359.164s-359.164 160.803-359.164 359.164c0 198.361 160.803 359.164 359.164 359.164s359.164-160.803 359.164-359.164z" />
<glyph unicode="&#xe935;" d="M649.338 420.199l-61.134 38.209c-3.057 3.057-9.17 1.528-12.227-3.057s-1.528-10.699 3.057-12.227v0l61.134-38.209c4.585-3.057 10.699-1.528 12.227 3.057 3.057 4.585 1.528 10.699-3.057 12.227v0z" />
<glyph unicode="&#xe936;" d="M551.386 479.851c-4.585 0-9.17-4.585-9.17-9.17v-1.528c0-3.057 1.528-4.585 4.585-6.113 1.528-1.528 3.057-1.528 4.585-1.528 3.057 0 6.113 1.528 7.642 4.585 3.057 4.585 1.528 10.699-3.057 13.755-1.528 0-3.057 0-4.585 0z" />
<glyph unicode="&#xe937;" d="M453.403 455.733c-3.057 4.585-7.642 6.113-12.227 3.057l-61.134-38.209c-4.585-3.057-6.113-9.17-3.057-13.755 1.528-3.057 4.585-4.585 7.642-4.585 1.528 0 3.057 0 4.585 1.528l61.134 38.209c4.585 3.057 6.113 9.17 3.057 13.755z" />
<glyph unicode="&#xe938;" d="M477.429 480.569c-4.585 0-9.17-4.585-9.17-9.17 0-6.113 4.585-9.17 9.17-9.17s7.642 3.057 9.17 7.642-1.528 9.17-7.642 10.699c0 0 0 0-1.528 0z" />
<glyph unicode="&#xe939;" d="M751.295 269.182c-3.057 4.585-9.17 4.585-13.755 1.528-9.17-9.17-19.869-16.812-32.096-21.397-13.755-3.057-29.039-1.528-41.266 6.113l48.907 165.063c1.528 4.585 0 9.17-4.585 10.699l-45.851 27.51v81.003c0 4.585-4.585 9.17-9.17 9.17h-18.34v29.039c0 4.585-4.585 9.17-9.17 9.17h-30.567v27.51c0 6.113-4.585 9.17-9.17 9.17h-45.851v67.248c0 4.585-4.585 9.17-9.17 9.17h-38.209c-4.585 0-9.17-4.585-9.17-9.17v0-67.248h-45.851c-4.585 0-9.17-4.585-9.17-9.17v0-29.039h-30.567c-4.585 1.528-9.17-3.057-9.17-7.642v0-29.039h-18.34c-4.585 0-9.17-4.585-9.17-9.17v0-81.003l-45.851-27.51c-3.057-1.528-6.113-6.113-4.585-10.699l48.907-165.063c-1.528 3.057-15.284 4.585-18.34 4.585-27.51 3.057-48.907-10.699-68.776-27.51-4.585-3.057-4.585-9.17-1.528-13.755s9.17-4.585 13.755-1.528c19.869 18.34 42.794 30.567 70.304 18.34 22.925-13.755 50.436-15.284 74.89-4.585 19.869 10.699 39.737 19.869 62.663 9.17l22.925-10.699c19.869-9.17 42.794-9.17 62.663 0 12.227 7.642 24.454 12.227 38.209 15.284 13.755 0 27.51-3.057 39.737-10.699 16.812-7.642 35.152-9.17 51.964-4.585 15.284 4.585 29.039 13.755 39.737 24.454 6.113 6.113 7.642 10.699 3.057 15.284v0zM644.31 530.531v-59.606l-99.343 59.606h99.343zM502.173 681.839h18.34v-58.078h-18.34v58.078zM447.152 605.421h129.91v-18.34h-129.91v18.34zM379.904 530.531h97.815l-97.815-59.606v59.606zM502.173 258.484c0 1.528-13.755 4.585-15.284 4.585-16.812 4.585-33.624 1.528-48.907-6.113-10.699-6.113-21.397-10.699-33.624-13.755v0c-7.642-1.528-15.284 0-21.397 1.528l-51.964 174.233 171.176 103.928v-264.406zM407.414 548.872v18.34h207.857v-18.34h-207.857zM645.838 261.54c0 3.057-25.982 3.057-29.039 3.057-15.284-3.057-30.567-9.17-45.851-16.812-16.812-7.642-35.152-7.642-51.964 1.528v273.576l171.176-103.928-44.322-157.421z" />
<glyph unicode="&#xe93a;" d="M1008.411 448c0-274.329-222.388-496.716-496.716-496.716s-496.716 222.388-496.716 496.716c0 274.329 222.388 496.716 496.716 496.716s496.716-222.388 496.716-496.716z" />
<glyph unicode="&#xe93b;" d="M870.859 448c0-198.361-160.803-359.164-359.164-359.164s-359.164 160.803-359.164 359.164c0 198.361 160.803 359.164 359.164 359.164s359.164-160.803 359.164-359.164z" />
<glyph unicode="&#xe93c;" d="M713.438 359.355l13.755 13.755c9.17 9.17 9.17 22.925 0 30.567-7.642 7.642-18.34 9.17-27.51 3.057l-3.057 9.17 15.284 15.284c9.17 9.17 9.17 22.925 0 30.567-7.642 7.642-19.869 9.17-29.039 1.528l-16.812 58.078c7.642 6.113 13.755 13.755 19.869 19.869 16.812 15.284 30.567 33.624 41.266 53.493 15.284 27.51 9.17 42.794 1.528 50.436s-22.925 13.755-50.436-1.528c-19.869-10.699-38.209-24.454-53.493-41.266-6.113-6.113-12.227-12.227-19.869-19.869l-58.078 16.812c7.642 9.17 6.113 22.925-4.585 30.567-9.17 6.113-21.397 6.113-29.039-1.528l-15.284-15.284-9.17 3.057c6.113 10.699 4.585 24.454-6.113 30.567-10.699 7.642-22.925 7.642-30.567 0l-13.755-13.755-68.776 19.869c-3.057 1.528-4.585 0-6.113-1.528l-18.34-16.812c-3.057-3.057-3.057-7.642 0-10.699v0l174.233-128.382c-39.737-44.322-77.946-88.645-103.928-120.74l-50.436 19.869c-3.057 1.528-6.113 0-7.642-1.528l-21.397-21.397c-3.057-3.057-3.057-7.642 0-9.17v0l105.457-105.457c3.057-3.057 7.642-3.057 9.17 0l21.397 21.397c1.528 1.528 3.057 4.585 1.528 7.642l-19.869 51.964c32.096 27.51 76.418 64.191 120.74 103.928l13.755-18.34c1.528-3.057 6.113-3.057 9.17-1.528s3.057 6.113 1.528 9.17v0l-15.284 19.869c22.925 21.397 45.851 41.266 67.248 61.134l65.719-221.612-9.17-9.17-90.173 123.797c-1.528 3.057-6.113 4.585-9.17 1.528-3.057-1.528-4.585-6.113-1.528-9.17v0l94.758-129.91c3.057-3.057 6.113-3.057 9.17-1.528v0l18.34 18.34c1.528 1.528 3.057 4.585 1.528 7.642l-16.812 67.248zM520.864 620.704c3.057 3.057 7.642 3.057 10.699 0s3.057-7.642 0-10.699v0l-3.057-3.057-16.812 4.585 9.17 9.17zM462.787 635.988c3.057 3.057 7.642 3.057 10.699 0s3.057-7.642 0-10.699l-1.528-1.528-16.812 4.585 7.642 7.642zM360.387 629.875l9.17 9.17 221.612-65.719c-19.869-21.397-41.266-44.322-61.134-67.248l-169.648 123.797zM363.444 379.224l42.794-15.284c-10.699-12.227-18.34-22.925-24.454-29.039l-30.567 32.096 12.227 12.227zM392.482 324.203c24.454 29.039 152.836 184.931 238.424 268.991 15.284 15.284 32.096 29.039 50.436 38.209 10.699 6.113 25.982 10.699 35.152 3.057s3.057-22.925-3.057-35.152c-10.699-18.34-22.925-35.152-38.209-50.436-85.588-85.588-239.952-213.97-268.991-238.424l-13.755 13.755zM459.73 284.466l-12.227-12.227-32.096 30.567c6.113 4.585 15.284 13.755 29.039 24.454l15.284-42.794zM705.796 392.979c3.057 3.057 7.642 3.057 10.699 0s3.057-7.642 0-10.699v0l-7.642-7.642-6.113 16.812 3.057 1.528zM688.984 451.057c3.057 3.057 7.642 3.057 10.699 0s3.057-7.642 0-10.699v0l-9.17-9.17-4.585 16.812 3.057 3.057z" />
<glyph unicode="&#xe93d;" d="M679.814 250.842l-59.606-59.606c-3.057-3.057-3.057-7.642 0-9.17s7.642-3.057 9.17 0v0l59.606 59.606c3.057 3.057 3.057 7.642 0 9.17s-6.113 3.057-9.17 0z" />
<glyph unicode="&#xe93e;" d="M659.945 270.71c3.057 3.057 3.057 7.642 0 9.17s-7.642 3.057-9.17 0l-36.681-36.681c-3.057-3.057-3.057-7.642 0-9.17s7.642-3.057 9.17 0l36.681 36.681z" />
<glyph unicode="&#xe93f;" d="M637.020 308.919c3.057 3.057 3.057 7.642 0 9.17s-7.642 3.057-9.17 0v0l-25.982-25.982c-3.057-3.057-3.057-7.642 0-9.17s7.642-3.057 9.17 0l25.982 25.982z" />
<glyph unicode="&#xe940;" d="M331.348 605.421c-3.057 3.057-7.642 3.057-10.699 0l-59.606-59.606c-1.528-3.057-1.528-7.642 0-9.17v0c3.057-3.057 7.642-3.057 9.17 0l59.606 59.606c4.585 3.057 4.585 6.113 1.528 9.17z" />
<glyph unicode="&#xe941;" d="M360.387 576.382c-1.528 1.528-6.113 1.528-9.17 0v0l-36.681-38.209c-3.057-3.057-3.057-6.113 0-9.17s7.642-3.057 9.17 0v0l36.681 36.681c3.057 3.057 3.057 7.642 0 10.699v0z" />
<glyph unicode="&#xe942;" d="M361.915 516.776c3.057-3.057 7.642-3.057 9.17 0l25.982 25.982c3.057 3.057 3.057 7.642 0 9.17s-7.642 3.057-9.17 0l-25.982-24.454c-1.528-3.057-1.528-7.642 0-10.699z" />
<glyph unicode="&#xe943;" d="M1008.778 448c0-274.329-222.388-496.716-496.716-496.716s-496.716 222.388-496.716 496.716c0 274.329 222.388 496.716 496.716 496.716s496.716-222.388 496.716-496.716z" />
<glyph unicode="&#xe944;" d="M871.225 448c0-198.361-160.803-359.164-359.164-359.164s-359.164 160.803-359.164 359.164c0 198.361 160.803 359.164 359.164 359.164s359.164-160.803 359.164-359.164z" />
<glyph unicode="&#xe945;" d="M597.496 673.907c-6.113 0-10.699-4.585-10.699-10.699s4.585-10.699 10.699-10.699 10.699 4.585 10.699 10.699v0c0 6.113-4.585 10.699-10.699 10.699z" />
<glyph unicode="&#xe946;" d="M431.287 673.907c-6.113 0-10.699-4.585-10.699-10.699s4.585-10.699 10.699-10.699 10.699 4.585 10.699 10.699v0c0 6.113-4.585 10.699-10.699 10.699z" />
<glyph unicode="&#xe947;" d="M730.616 201.934l-68.776 71.833c27.51 1.528 50.436 24.454 50.436 51.964v307.2c0 35.152-24.454 64.191-58.078 71.833-38.209 7.642-76.418 10.699-113.099 10.699h-55.021c-36.681 0-74.89-3.057-110.042-10.699s-59.606-36.681-59.606-71.833v-308.728c0-27.51 22.925-51.964 50.436-51.964l-68.776-71.833c-4.585-4.585-4.585-10.699 0-15.284 1.528-1.528 4.585-3.057 7.642-3.057h74.89c3.057 0 6.113 1.528 7.642 4.585l32.096 42.794h189.516l32.096-42.794c1.528-3.057 4.585-4.585 9.17-4.585h71.833c6.113 0 10.699 4.585 10.699 10.699 0 4.585-1.528 6.113-3.057 9.17v0zM337.828 324.203v308.728c0 24.454 16.812 45.851 41.266 50.436 35.152 7.642 70.304 10.699 106.985 10.699h55.021c36.681 0 71.833-3.057 108.513-10.699 24.454-4.585 41.266-25.982 41.266-50.436v-308.728c0-16.812-13.755-30.567-30.567-30.567h-290.388c-18.34 0-32.096 13.755-32.096 30.567v0zM374.509 204.991h-44.322l65.719 67.248h27.51l-48.907-67.248zM434.115 252.37l15.284 21.397h129.91l15.284-21.397h-160.478zM654.198 204.991l-48.907 67.248h27.51l65.719-68.776-44.322 1.528z" />
<glyph unicode="&#xe948;" d="M659.349 632.366h-290.388c-6.113 0-10.699-4.585-10.699-10.699v0-172.704c0-6.113 4.585-10.699 10.699-10.699v0h290.388c6.113 0 10.699 4.585 10.699 10.699v0 172.704c0 6.113-4.585 10.699-10.699 10.699v0zM503.456 459.661h-123.797v151.307h125.325l-1.528-151.307zM648.651 459.661h-125.325v151.307h125.325v-151.307z" />
<glyph unicode="&#xe949;" d="M555.375 673.907h-82.531c-6.113 0-10.699-4.585-10.699-10.699s4.585-9.17 10.699-10.699h82.531c6.113 0 10.699 4.585 10.699 10.699s-4.585 10.699-10.699 10.699z" />
<glyph unicode="&#xe94a;" d="M628.064 407.988c-22.925 0-41.266-18.34-41.266-41.266s18.34-41.266 41.266-41.266 41.266 18.34 41.266 41.266v0c0 22.925-18.34 41.266-41.266 41.266zM628.064 345.325c-10.699 0-19.869 9.17-19.869 21.397 0 10.699 9.17 19.869 19.869 19.869 12.227 0 21.397-9.17 21.397-21.397 0-10.699-9.17-19.869-21.397-19.869z" />
<glyph unicode="&#xe94b;" d="M399.528 407.988c-22.925 0-41.266-18.34-41.266-41.266s18.34-41.266 41.266-41.266 41.266 18.34 41.266 41.266v0c0 22.925-18.34 41.266-41.266 41.266zM399.528 345.325c-10.699 0-19.869 9.17-19.869 21.397s9.17 19.869 19.869 19.869c12.227 0 21.397-9.17 21.397-21.397 0-10.699-9.17-19.869-21.397-19.869z" />
<glyph unicode="&#xe94c;" d="M555.375 397.595h-82.531c-6.113 0-10.699-4.585-10.699-10.699s4.585-9.17 10.699-10.699h82.531c6.113 0 10.699 4.585 10.699 10.699s-4.585 10.699-10.699 10.699z" />
<glyph unicode="&#xe94d;" d="M555.375 356.039h-82.531c-6.113 0-10.699-4.585-10.699-10.699 0-4.585 4.585-9.17 9.17-10.699 0 0 0 0 1.528 0h82.531c6.113 0 10.699 4.585 10.699 10.699s-4.585 10.699-10.699 10.699c1.528 0 0 0 0 0z" />
<glyph unicode="&#xe94e;" d="M1008.716 448c0-274.329-222.388-496.716-496.716-496.716s-496.716 222.388-496.716 496.716c0 274.329 222.388 496.716 496.716 496.716s496.716-222.388 496.716-496.716z" />
<glyph unicode="&#xe94f;" d="M871.164 448c0-198.361-160.803-359.164-359.164-359.164s-359.164 160.803-359.164 359.164c0 198.361 160.803 359.164 359.164 359.164s359.164-160.803 359.164-359.164z" />
<glyph unicode="&#xe950;" d="M739.129 628.362l-55.021 53.493c-1.528 1.528-4.585 3.057-7.642 3.057h-221.612c-7.642 0-12.227-4.585-12.227-12.227v-36.681l-77.946-12.227c-6.113-1.528-10.699-7.642-9.17-13.755l4.585-22.925c-25.982-9.17-53.493-16.812-77.946-25.982-6.113-3.057-9.17-9.17-7.642-15.284l50.436-139.081c1.528-3.057 6.113-4.585 9.17-3.057s4.585 4.585 4.585 7.642l-48.907 137.552c24.454 9.17 48.907 16.812 71.833 24.454l22.925-137.552 27.51-158.949c1.528-6.113 7.642-10.699 13.755-9.17l73.361 12.227 58.078 9.17-87.116-30.567-68.776-24.454-53.493 146.722c-1.528 3.057-6.113 4.585-9.17 3.057-1.528 0-3.057-3.057-3.057-6.113l53.493-149.779c1.528-4.585 6.113-7.642 10.699-7.642 1.528 0 3.057 0 4.585 0l70.304 25.982 158.949 56.549 30.567 4.585h67.248c6.113 0 12.227 4.585 12.227 12.227v301.087c0 3.057-1.528 6.113-4.585 7.642v0zM722.317 626.833h-35.152c-1.528 0-6.113 0-6.113 1.528 0 0 0 1.528 0 3.057v36.681l41.266-41.266zM729.959 322.69h-273.576v134.496c0 3.057-3.057 6.113-7.642 6.113-3.057 0-6.113-3.057-6.113-6.113v-136.024c0-6.113 4.585-12.227 12.227-12.227h128.382l-87.116-15.284-71.833-12.227-25.982 157.421-29.039 171.176 73.361 13.755v-134.496c0-3.057 3.057-7.642 6.113-7.642s7.642 3.057 7.642 6.113v0 183.403h209.385v-41.266c0-4.585 1.528-9.17 4.585-12.227 4.585-3.057 9.17-6.113 15.284-4.585h44.322c0 0 0-290.388 0-290.388z" />
<glyph unicode="&#xe951;" d="M490.007 577.926c0-3.057 3.057-6.113 6.113-6.113h197.158c3.057 0 6.113 3.057 6.113 7.642 0 3.057-3.057 6.113-6.113 6.113h-197.158c-3.057 0-6.113-3.057-6.113-7.642v0z" />
<glyph unicode="&#xe952;" d="M693.279 536.66h-197.158c-3.057 0-6.113-3.057-6.113-7.642 0-3.057 3.057-6.113 6.113-6.113h197.158c3.057 0 6.113 3.057 6.113 7.642 0 3.057-3.057 6.113-6.113 6.113v0z" />
<glyph unicode="&#xe953;" d="M693.279 487.753h-197.158c-3.057 0-6.113-3.057-6.113-7.642 0-3.057 3.057-6.113 6.113-6.113h197.158c3.057 0 6.113 3.057 6.113 7.642 0 3.057-3.057 6.113-6.113 6.113v0z" />
<glyph unicode="&#xe954;" d="M693.279 438.845h-197.158c-3.057 0-6.113-3.057-6.113-7.642 0-3.057 3.057-6.113 6.113-6.113h197.158c3.057 0 6.113 3.057 6.113 7.642 0 3.057-3.057 6.113-6.113 6.113v0z" />
<glyph unicode="&#xe955;" d="M693.279 389.938h-197.158c-3.057 0-6.113-3.057-6.113-7.642 0-3.057 3.057-6.113 6.113-6.113h197.158c3.057 0 6.113 3.057 6.113 7.642 0 3.057-3.057 6.113-6.113 6.113v0z" />
</font>
</defs>
</svg>
